<?xml version="1.0" standalone="no"?>
<!DOCTYPE svg PUBLIC "-//W3C//DTD SVG 20010904//EN"
 "http://www.w3.org/TR/2001/REC-SVG-20010904/DTD/svg10.dtd">
<svg version="1.0" xmlns="http://www.w3.org/2000/svg"
 width="584.000000pt" height="468.000000pt" viewBox="0 0 584.000000 468.000000"
 preserveAspectRatio="xMidYMid meet">

<g transform="translate(0.000000,468.000000) scale(0.100000,-0.100000)"
fill="#000000" stroke="none">
<path d="M2745 4394 c-317 -33 -564 -103 -820 -232 -648 -325 -1075 -937
-1145 -1641 -73 -736 285 -1467 925 -1887 269 -177 564 -289 895 -341 159 -24
481 -24 640 0 331 52 626 164 895 341 640 420 998 1151 925 1887 -70 704 -497
1316 -1145 1641 -213 107 -429 176 -665 213 -101 15 -422 28 -505 19z m359
-562 c216 -79 364 -265 383 -481 7 -80 24 -111 60 -111 38 0 63 27 63 68 l0
35 70 -5 c171 -13 327 -152 375 -333 19 -75 19 -204 0 -278 -34 -132 -129
-258 -230 -309 -107 -54 -131 -57 -425 -60 l-275 -3 -3 321 c-2 288 -1 322 14
328 10 4 27 -5 47 -27 167 -175 170 -177 199 -177 41 0 63 14 77 49 10 23 10
34 -1 54 -7 13 -127 147 -267 296 -245 261 -255 271 -291 271 -36 0 -46 -9
-231 -207 -107 -114 -221 -237 -255 -273 -79 -84 -87 -99 -73 -139 13 -36 35
-51 77 -51 24 0 47 18 131 106 85 90 103 104 116 94 13 -11 15 -59 15 -315 0
-167 -3 -310 -6 -319 -5 -14 -36 -16 -238 -16 -150 1 -258 5 -308 14 -235 42
-398 245 -398 495 0 148 44 262 135 354 62 63 155 114 234 126 71 11 91 5 91
-28 0 -40 26 -71 60 -71 36 0 60 32 60 81 0 69 20 144 60 225 67 138 211 255
366 299 78 22 293 15 368 -13z m-150 -624 c14 -20 16 -87 16 -534 0 -473 -1
-513 -18 -533 -24 -31 -79 -31 -104 -1 -17 21 -18 52 -18 536 0 501 1 515 20
534 28 28 84 27 104 -2z m5 -1274 c12 -15 21 -34 21 -44 0 -34 -39 -70 -75
-70 -36 0 -75 36 -75 70 0 34 39 70 75 70 24 0 39 -7 54 -26z m447 -28 c18
-13 19 -30 22 -246 3 -263 0 -280 -61 -280 -18 0 -38 5 -44 11 -8 8 -17 8 -31
0 -29 -15 -108 -14 -140 3 -36 19 -78 65 -91 99 -30 78 0 195 59 237 38 27
114 37 159 22 l31 -11 0 71 c0 52 4 76 17 90 19 22 52 23 79 4z m-448 -164 c8
-11 12 -62 12 -171 0 -171 -6 -191 -61 -191 -51 0 -59 27 -59 196 l0 153 27
20 c28 23 59 20 81 -7z m-1578 7 c8 0 40 3 70 7 48 5 60 3 90 -18 l35 -24 34
23 c40 27 116 31 161 8 59 -30 72 -65 78 -196 5 -137 -5 -169 -58 -169 -48 0
-60 29 -60 142 0 85 -3 101 -20 118 -27 27 -55 25 -79 -6 -18 -23 -21 -41 -21
-128 0 -109 -6 -126 -49 -126 -51 0 -61 23 -61 141 0 100 -2 109 -22 123 -30
21 -54 20 -78 -4 -18 -18 -20 -33 -20 -128 0 -117 -6 -132 -51 -132 -54 0 -59
16 -59 194 0 182 3 191 60 181 19 -3 42 -6 50 -6z m793 -4 c25 -13 30 -13 44
0 17 18 64 20 81 3 8 -8 12 -61 12 -174 0 -134 -3 -165 -16 -178 -18 -19 -65
-21 -81 -5 -9 9 -20 9 -42 -1 -45 -18 -131 -9 -170 19 -67 48 -97 172 -58 246
19 37 64 81 97 94 37 15 101 13 133 -4z m329 -2 c15 -13 18 -32 18 -115 0
-113 13 -138 74 -138 55 0 66 25 66 147 0 91 2 103 19 113 31 16 69 12 81 -9
5 -11 10 -86 10 -171 0 -85 -5 -160 -10 -171 -11 -20 -59 -26 -76 -9 -6 6 -25
4 -53 -6 -79 -27 -163 4 -205 76 -29 49 -37 237 -12 275 19 29 60 33 88 8z
m1102 1 c15 -14 17 -14 32 0 21 22 61 20 74 -3 23 -44 -1 -111 -40 -111 -39 0
-50 -26 -50 -118 0 -106 -14 -135 -63 -130 -50 5 -57 32 -56 195 1 158 9 183
59 183 16 0 36 -7 44 -16z m428 -14 c62 -42 83 -84 83 -165 0 -63 -3 -76 -29
-109 -36 -48 -78 -74 -133 -82 -64 -9 -144 32 -179 92 -64 108 -32 218 81 279
43 23 133 16 177 -15z m257 16 c10 -12 16 -12 39 0 77 40 179 -6 223 -101 65
-140 -52 -293 -206 -269 l-45 6 3 -70 c2 -78 -16 -112 -59 -112 -49 0 -54 24
-54 287 0 206 2 244 16 257 19 20 68 21 83 2z"/>
<path d="M2867 1932 c-10 -10 -17 -23 -17 -28 0 -5 6 -2 13 7 19 25 53 32 71
14 22 -23 20 -51 -6 -69 -29 -21 -33 -20 -59 7 -13 13 -20 16 -17 7 3 -8 16
-21 30 -29 23 -13 29 -13 52 2 18 12 26 26 26 46 0 53 -60 80 -93 43z"/>
<path d="M3181 1624 c-12 -15 -21 -40 -21 -56 0 -36 40 -78 75 -78 35 0 75 42
75 78 0 44 -35 82 -75 82 -24 0 -39 -7 -54 -26z"/>
<path d="M2067 1633 c-57 -64 -4 -160 78 -139 30 8 59 59 51 92 -15 58 -93 86
-129 47z"/>
<path d="M3886 1629 c-52 -41 -24 -139 40 -139 38 0 61 16 73 50 12 37 1 72
-31 94 -30 21 -50 20 -82 -5z"/>
<path d="M4325 1625 c-48 -47 -17 -135 46 -135 35 0 79 39 79 69 0 33 -21 68
-47 80 -36 16 -51 14 -78 -14z"/>
</g>
</svg>
